<svg xmlns="http://www.w3.org/2000/svg" width="36.666" height="36.666" viewBox="0 0 36.666 36.666">
  <path id="arrow-circle-right-solid" d="M26.333,8A18.333,18.333,0,1,1,8,26.333,18.33,18.33,0,0,1,26.333,8ZM24.2,18.616l5.581,5.352H16.28a1.77,1.77,0,0,0-1.774,1.774v1.183A1.77,1.77,0,0,0,16.28,28.7h13.5L24.2,34.051a1.776,1.776,0,0,0-.03,2.536l.813.806a1.767,1.767,0,0,0,2.506,0l9.81-9.8a1.767,1.767,0,0,0,0-2.506l-9.81-9.817a1.767,1.767,0,0,0-2.506,0l-.813.806A1.785,1.785,0,0,0,24.2,18.616Z" transform="translate(-8 -8)" fill="#77c68c"/>
</svg>
