<svg xmlns="http://www.w3.org/2000/svg" width="36.666" height="36.666" viewBox="0 0 36.666 36.666">
  <path id="arrow-circle-right-solid" d="M26.333,8A18.333,18.333,0,1,0,44.666,26.333,18.33,18.33,0,0,0,26.333,8ZM28.47,18.616l-5.581,5.352h13.5a1.77,1.77,0,0,1,1.774,1.774v1.183A1.77,1.77,0,0,1,36.387,28.7h-13.5l5.581,5.352a1.776,1.776,0,0,1,.03,2.536l-.813.806a1.767,1.767,0,0,1-2.506,0l-9.81-9.8a1.767,1.767,0,0,1,0-2.506l9.81-9.817a1.767,1.767,0,0,1,2.506,0l.813.806A1.785,1.785,0,0,1,28.47,18.616Z" transform="translate(-8 -8)" fill="#a3a3a8"/>
</svg>
