<svg xmlns="http://www.w3.org/2000/svg" width="24.6" height="32.8" viewBox="0 0 24.6 32.8">
  <g id="bookmark-plus" transform="translate(-2)">
    <path id="Path_1" data-name="Path 1" d="M2,4.1A4.1,4.1,0,0,1,6.1,0H22.5a4.1,4.1,0,0,1,4.1,4.1V31.776a1.025,1.025,0,0,1-1.593.853L14.3,26.858,3.593,32.628A1.025,1.025,0,0,1,2,31.776ZM6.1,2.05A2.05,2.05,0,0,0,4.05,4.1V29.861l9.682-5.088a1.025,1.025,0,0,1,1.136,0l9.682,5.088V4.1A2.05,2.05,0,0,0,22.5,2.05Z" transform="translate(0)"/>
    <path id="Path_2" data-name="Path 2" d="M10.625,4A1.025,1.025,0,0,1,11.65,5.025V8.1h3.075a1.025,1.025,0,1,1,0,2.05H11.65v3.075a1.025,1.025,0,0,1-2.05,0V10.15H6.525a1.025,1.025,0,0,1,0-2.05H9.6V5.025A1.025,1.025,0,0,1,10.625,4Z" transform="translate(3.675 4.2)"/>
  </g>
</svg>
