<svg id="check-circle" xmlns="http://www.w3.org/2000/svg" width="96.667" height="96.667" viewBox="0 0 96.667 96.667">
  <path id="Path_5" data-name="Path 5" d="M48.333,90.625A42.292,42.292,0,1,1,90.625,48.333,42.292,42.292,0,0,1,48.333,90.625Zm0,6.042A48.333,48.333,0,1,0,0,48.333,48.333,48.333,0,0,0,48.333,96.667Z" fill="#77c68c"/>
  <path id="Path_6" data-name="Path 6" d="M45.492,6.1a1.42,1.42,0,0,0-.121.133L24.388,32.972,11.743,20.32a4.531,4.531,0,0,0-6.4,6.4L21.325,42.717a4.531,4.531,0,0,0,6.519-.121L51.962,12.448A4.531,4.531,0,1,0,45.491,6.1Z" transform="translate(20.785 23.923)" fill="#77c68c"/>
</svg>
