<?xml version="1.0" encoding="utf-8"?>
<!-- Generator: Adobe Illustrator 25.4.1, SVG Export Plug-In . SVG Version: 6.00 Build 0)  -->
<svg version="1.1" id="Capa_1" xmlns="http://www.w3.org/2000/svg" xmlns:xlink="http://www.w3.org/1999/xlink" x="0px" y="0px"
	 viewBox="0 0 52 52" style="enable-background:new 0 0 52 52;" xml:space="preserve">
<style type="text/css">
	.st0{fill:#FF3F45;}
</style>
<g>
	<path class="st0" d="M44.4,7.6C34.2-2.5,17.7-2.5,7.6,7.6s-10.1,26.6,0,36.8s26.6,10.1,36.8,0C54.5,34.2,54.5,17.7,44.4,7.6z
		 M36.2,36.2c-0.8,0.8-2,0.8-2.8,0L26,28.8l-7.8,7.8c-0.8,0.8-2,0.8-2.8,0c-0.8-0.8-0.8-2,0-2.8l7.8-7.8l-7.4-7.4
		c-0.8-0.8-0.8-2,0-2.8c0.8-0.8,2-0.8,2.8,0l7.4,7.4l7.1-7.1c0.8-0.8,2-0.8,2.8,0s0.8,2,0,2.8L28.8,26l7.4,7.4
		C37,34.2,37,35.5,36.2,36.2z"/>
</g>
</svg>
